<svg xmlns="http://www.w3.org/2000/svg" fill="none" viewBox="0 0 51 50" height="50" width="51">
<g clip-path="url(#clip0_2447_6665)">
<path fill="#8A99A0" d="M20.0932 13.0257C20.8098 13.0257 21.4798 12.7789 21.9452 12.3219C22.4105 11.8649 22.6246 11.3164 22.6246 10.6309C22.6246 9.9453 22.3919 9.36943 21.9452 8.93982C21.4892 8.49192 20.8005 8.24512 20.0932 8.24512C19.3859 8.24512 18.6972 8.49192 18.2319 8.93982C17.7851 9.36943 17.5618 9.98186 17.5618 10.6309C17.5525 11.2616 17.7944 11.8649 18.2319 12.3219C18.6879 12.7698 19.3766 13.0257 20.0932 13.0257Z"></path>
<path fill="#8A99A0" d="M46.0214 -0.00878906H4.97942C2.24328 -0.00878906 0.0283203 2.16671 0.0283203 4.8541V45.1649C0.0283203 47.8523 2.24328 50.0278 4.97942 50.0278H46.0214C48.7575 50.0278 50.9725 47.8523 50.9725 45.1649V4.8541C50.9725 2.16671 48.7575 -0.00878906 46.0214 -0.00878906ZM35.2351 7.77H39.2741V8.49212H38.7902C38.6785 8.49212 38.604 8.60181 38.6971 8.7115C38.6971 8.7115 40.0559 10.3111 40.0652 10.3203C40.0745 10.3386 40.0931 10.3386 40.1024 10.3203C40.121 10.302 41.4984 8.72064 41.5077 8.70236C41.5263 8.67494 41.5356 8.64752 41.5356 8.61095C41.5356 8.53783 41.4612 8.47384 41.3867 8.48298H40.8842V7.76086H44.1973V8.48298H43.4621C43.1922 8.48298 43.0898 8.52869 42.8851 8.75721L40.6608 11.2526C40.6422 11.2801 40.6329 11.3258 40.6329 11.3623V12.4958C40.6329 12.5506 40.6329 12.5963 40.6515 12.6512C40.6794 12.7152 40.7353 12.77 40.8097 12.7883C40.8749 12.7883 40.94 12.7974 41.0145 12.7974H41.7683V13.5195H37.7478V12.7974H38.4645C38.5296 12.7974 38.6041 12.7974 38.6692 12.7883C38.7436 12.77 38.7995 12.7152 38.8274 12.6512C38.8367 12.5963 38.846 12.5506 38.846 12.4958V11.3623C38.846 11.3258 38.846 11.3258 38.7995 11.2618C38.753 11.1978 36.6869 8.90346 36.5938 8.80291C36.4728 8.67494 36.2681 8.48298 35.961 8.48298H35.2444V7.76086L35.2351 7.77ZM25.3794 7.77H28.2551L32.2849 11.3349L32.2477 8.93088C32.2477 8.61095 32.1825 8.48298 31.8382 8.48298H31.0843V7.76086H34.5278V8.48298H33.7926C33.4389 8.48298 33.4203 8.59267 33.411 8.93088L33.4761 13.5195H32.2942L27.6595 9.4519V12.3404C27.6595 12.6512 27.6781 12.8066 28.0039 12.8066H28.8322V13.5287H25.4539V12.8066H26.2449C26.5427 12.8066 26.5241 12.5323 26.5241 12.3312V8.96744C26.5241 8.74807 26.4962 8.49212 26.0309 8.49212H25.3887V7.77H25.3794ZM16.6312 8.54697C17.413 7.85227 18.7904 7.41351 20.084 7.41351C21.5172 7.41351 22.6712 7.77 23.546 8.55611C24.1416 9.09542 24.4767 9.8541 24.4767 10.6493C24.4767 11.4446 24.1416 12.2033 23.546 12.7517C22.727 13.5013 21.4427 13.8852 20.084 13.8852C18.7252 13.8852 17.4688 13.4921 16.6312 12.7517C16.0263 12.2124 15.682 11.4537 15.6913 10.6493C15.6913 9.8541 16.0263 9.08628 16.6312 8.55611V8.54697ZM7.9296 7.85227C8.62759 7.54148 9.44657 7.41351 10.1725 7.41351C11.4568 7.41351 12.4991 7.82485 12.8714 8.0168C13.0203 8.09907 13.0947 7.99852 13.0947 7.9254V7.69688H13.923V9.67128H13.1878C13.1227 9.37878 12.9645 9.1137 12.7318 8.92174C12.5922 8.81205 12.434 8.72064 12.2665 8.64752C11.6522 8.39158 10.9822 8.26361 10.3121 8.27275C9.62339 8.27275 8.95332 8.40072 8.62759 8.60181C8.42284 8.72978 8.32047 8.88518 8.32047 9.07713C8.32047 9.26909 8.55314 9.44276 8.66482 9.47933C9.03708 9.58902 9.96774 9.67128 10.4982 9.72613C11.0101 9.77183 12.071 9.91808 12.5457 10.0369C12.7969 10.1009 13.0389 10.1832 13.2716 10.2837C13.4856 10.3843 13.6904 10.5122 13.8579 10.6768C14.165 10.9876 14.3418 11.408 14.3325 11.8468C14.3325 12.313 14.1185 12.7517 13.7369 13.0351C13.4019 13.2819 13.0296 13.4647 12.6294 13.5744C12.0245 13.7572 11.4009 13.8486 10.7681 13.8303C10.1725 13.8303 9.85606 13.7572 9.38142 13.6567C8.9254 13.5561 8.46938 13.419 8.04128 13.227C8.02266 13.2179 7.99474 13.2088 7.97613 13.2088C7.90168 13.2088 7.84584 13.2636 7.84584 13.3367V13.6475H6.93379V11.3806H7.76208C7.76208 11.6091 7.84584 11.8285 7.97613 12.0205C8.31117 12.4227 8.66482 12.578 8.99985 12.6969C9.57686 12.8797 10.1725 12.9802 10.7681 12.9985C11.6801 12.9985 12.1827 12.77 12.2572 12.7426C12.3316 12.7152 12.7504 12.578 12.7504 12.1393C12.7504 11.7005 12.3502 11.6183 12.1082 11.5543C11.8104 11.472 11.0752 11.408 10.3214 11.3258C9.56755 11.2435 8.81372 11.1338 8.46007 11.0515C7.66901 10.8779 7.3619 10.5945 7.17577 10.4208C6.89657 10.1283 6.74766 9.74441 6.74766 9.35136C6.74766 8.59267 7.27814 8.13563 7.9296 7.85227ZM50.5258 45.1649C50.5258 47.6055 48.5062 49.589 46.0214 49.589H4.97942C2.49456 49.589 0.475036 47.6055 0.475036 45.1649V14.7444C1.94547 21.3166 10.6192 23.4464 15.0677 24.1685C22.2989 25.3477 29.5488 25.7133 39.7208 27.7791C44.9884 28.8486 50.0232 32.6055 50.5351 36.9382V45.1649H50.5258Z"></path>
<path fill="#8A99A0" d="M15.691 31.3262H12.8246C12.5008 31.3262 12.2383 31.584 12.2383 31.902V46.253C12.2383 46.5711 12.5008 46.8289 12.8246 46.8289H15.691C16.0148 46.8289 16.2773 46.5711 16.2773 46.253V31.902C16.2773 31.584 16.0148 31.3262 15.691 31.3262Z"></path>
<path fill="#8A99A0" d="M21.5172 36.9932H18.6508C18.327 36.9932 18.0645 37.251 18.0645 37.569V46.2619C18.0645 46.5799 18.327 46.8378 18.6508 46.8378H21.5172C21.841 46.8378 22.1035 46.5799 22.1035 46.2619V37.569C22.1035 37.251 21.841 36.9932 21.5172 36.9932Z"></path>
<path fill="#8A99A0" d="M21.5172 34.1592H18.6508C18.327 34.1592 18.0645 34.417 18.0645 34.735V35.6674C18.0645 35.9854 18.327 36.2433 18.6508 36.2433H21.5172C21.841 36.2433 22.1035 35.9854 22.1035 35.6674V34.735C22.1035 34.417 21.841 34.1592 21.5172 34.1592Z"></path>
<path fill="#8A99A0" d="M30.2 43.3182L29.0832 40.8411C28.3387 39.2049 26.6914 38.1445 24.858 38.1445H24.1972C23.9087 38.1445 23.7133 38.437 23.8343 38.693L26.7566 45.0093C27.771 47.203 30.9352 47.2213 31.9775 45.0367L32.5359 43.8758L32.1171 44.0495C31.3819 44.3603 30.5257 44.0312 30.2 43.3182Z"></path>
<path fill="#8A99A0" d="M36.0911 35.1104H35.3C33.8109 35.1104 32.4615 35.9513 31.8286 37.2767C30.898 39.242 29.6602 41.8288 29.6416 41.8562L30.2931 43.2731C30.6095 43.9678 31.4471 44.2694 32.1451 43.9495L32.5918 43.7484L36.4447 35.6679C36.5657 35.412 36.3796 35.1195 36.0911 35.1195V35.1104Z"></path>
<path fill="#8A99A0" d="M37.0779 33.0625H36.2869C34.7978 33.0625 33.4391 33.9034 32.8155 35.2289C32.648 35.5762 32.3316 36.2801 32.3223 36.3075L32.4433 36.1886C33.1785 35.4574 34.1836 35.0369 35.2352 35.0369H36.0728C36.2683 35.0369 36.4637 35.1283 36.5847 35.2837L37.4316 33.6109C37.5526 33.355 37.3664 33.0625 37.0779 33.0625Z"></path>
<path fill="#8A99A0" d="M38.1578 30.6768H37.3667C35.8777 30.6768 34.5189 31.5177 33.8954 32.8431C33.7278 33.1905 33.337 34.2234 33.3184 34.2508L33.4393 34.132C34.1746 33.4007 35.1797 32.9802 36.2313 32.9802H37.0689C37.2643 32.9802 37.4598 33.0716 37.5808 33.227L38.5114 31.2252C38.6324 30.9693 38.4463 30.6768 38.1578 30.6768Z"></path>
</g>
<defs>
<clipPath id="clip0_2447_6665">
<rect fill="white" height="50" width="51"></rect>
</clipPath>
</defs>
</svg>
